<svg id="svg" version="1.1" xmlns="http://www.w3.org/2000/svg" xmlns:xlink="http://www.w3.org/1999/xlink" width="400" height="406.01503759398497" viewBox="0, 0, 400,406.01503759398497"><g id="svgg"><path id="path0" d="M81.579 55.395 C 81.579 55.468,81.820 55.785,82.114 56.100 C 82.409 56.415,83.230 57.434,83.939 58.365 C 84.648 59.295,86.158 61.241,87.294 62.688 C 92.038 68.734,94.523 71.912,95.637 73.360 C 98.250 76.754,104.281 84.431,105.420 85.812 C 105.592 86.021,106.360 87.036,107.127 88.068 C 107.893 89.099,108.914 90.409,109.395 90.977 C 109.876 91.546,111.083 93.069,112.077 94.361 C 113.071 95.653,114.747 97.810,115.800 99.154 C 116.854 100.498,118.403 102.474,119.243 103.546 C 120.083 104.617,121.267 106.140,121.874 106.929 C 122.480 107.719,123.713 109.295,124.612 110.432 C 126.549 112.882,132.431 120.393,134.412 122.947 C 135.180 123.937,136.823 126.041,138.064 127.623 C 139.305 129.205,140.581 130.848,140.901 131.274 C 141.221 131.700,141.750 132.333,142.076 132.680 C 142.402 133.027,142.669 133.343,142.669 133.382 C 142.669 133.421,143.404 134.406,144.303 135.571 C 145.201 136.735,146.196 138.026,146.513 138.440 C 147.280 139.438,149.556 142.339,153.444 147.274 C 155.608 150.021,159.110 154.512,159.586 155.154 C 159.845 155.501,161.241 157.287,162.688 159.123 C 164.135 160.958,166.243 163.653,167.371 165.112 C 168.499 166.570,169.937 168.410,170.566 169.200 C 171.196 169.990,172.512 171.671,173.491 172.935 L 175.271 175.233 175.747 174.610 C 176.008 174.266,177.026 172.966,178.008 171.720 C 179.743 169.520,180.416 168.658,181.391 167.388 C 182.089 166.478,185.641 161.930,186.749 160.526 C 193.864 151.514,201.504 141.674,201.504 141.521 C 201.504 141.325,199.242 138.373,193.831 131.503 C 192.765 130.149,190.988 127.864,189.884 126.424 C 188.780 124.985,187.448 123.293,186.924 122.665 C 186.401 122.037,185.724 121.181,185.420 120.763 C 185.117 120.346,183.980 118.874,182.895 117.493 C 180.534 114.489,178.540 111.939,176.128 108.840 C 175.146 107.578,173.702 105.728,172.920 104.730 C 172.137 103.731,170.408 101.518,169.077 99.812 C 167.747 98.106,166.019 95.907,165.238 94.925 C 164.457 93.943,163.268 92.417,162.595 91.535 C 160.547 88.848,154.495 81.139,153.227 79.602 C 153.054 79.393,152.412 78.547,151.799 77.722 C 151.187 76.897,150.172 75.591,149.544 74.819 C 148.916 74.048,147.683 72.483,146.803 71.342 C 143.928 67.612,143.363 66.917,143.203 66.917 C 143.116 66.917,143.045 66.828,143.045 66.720 C 143.045 66.611,141.937 65.110,140.583 63.383 C 139.229 61.657,137.262 59.124,136.213 57.756 L 134.305 55.267 107.942 55.265 C 93.442 55.264,81.579 55.323,81.579 55.395 M174.141 177.458 C 173.528 178.225,172.942 178.961,172.838 179.094 C 172.735 179.227,172.566 179.439,172.462 179.565 C 171.142 181.169,170.113 182.535,170.113 182.681 C 170.113 182.781,170.041 182.892,169.954 182.926 C 169.801 182.987,167.393 186.005,167.011 186.615 C 166.908 186.780,166.666 187.089,166.474 187.302 C 166.130 187.682,162.570 192.194,161.654 193.411 C 161.396 193.754,161.027 194.214,160.835 194.433 C 160.644 194.652,160.230 195.211,159.916 195.677 C 159.603 196.142,159.249 196.607,159.130 196.711 C 159.011 196.814,158.663 197.235,158.357 197.647 C 157.688 198.546,157.398 198.908,156.723 199.688 C 156.440 200.015,156.208 200.342,156.206 200.416 C 156.204 200.489,156.046 200.701,155.855 200.886 C 155.516 201.213,153.104 204.283,152.350 205.348 C 151.755 206.187,149.715 208.782,148.665 210.036 C 148.396 210.357,147.846 211.051,147.443 211.578 C 147.040 212.104,145.230 214.421,143.421 216.725 C 139.906 221.202,138.369 223.183,136.778 225.283 C 136.229 226.007,135.638 226.741,135.465 226.914 C 135.292 227.087,135.150 227.315,135.150 227.421 C 135.150 227.526,135.045 227.681,134.915 227.763 C 134.660 227.927,133.534 229.321,133.049 230.075 C 132.882 230.334,132.440 230.883,132.065 231.297 C 131.690 231.711,131.157 232.387,130.880 232.801 C 130.603 233.214,130.287 233.637,130.177 233.741 C 130.067 233.844,129.451 234.605,128.808 235.432 C 128.165 236.259,127.529 237.063,127.394 237.218 C 127.259 237.373,126.772 238.008,126.310 238.628 C 125.849 239.248,125.424 239.798,125.368 239.850 C 125.311 239.901,124.849 240.493,124.342 241.165 C 123.835 241.837,123.372 242.430,123.314 242.481 C 123.164 242.614,122.344 243.652,121.898 244.273 C 121.692 244.561,121.250 245.101,120.916 245.472 C 120.582 245.843,120.308 246.252,120.305 246.382 C 120.303 246.511,120.231 246.617,120.146 246.617 C 120.060 246.617,119.659 247.080,119.253 247.646 C 118.847 248.213,118.452 248.678,118.374 248.680 C 118.297 248.682,118.233 248.804,118.233 248.951 C 118.233 249.097,118.164 249.245,118.079 249.279 C 117.995 249.314,117.395 250.019,116.748 250.846 C 116.100 251.673,115.345 252.636,115.069 252.987 C 114.247 254.032,112.995 255.660,112.096 256.853 C 111.168 258.083,108.503 261.414,108.130 261.808 C 108.000 261.945,107.893 262.114,107.891 262.184 C 107.889 262.255,107.588 262.650,107.223 263.064 C 106.857 263.477,106.108 264.408,105.559 265.132 C 105.009 265.855,103.090 268.321,101.293 270.612 C 99.496 272.902,97.899 274.963,97.744 275.193 C 97.589 275.422,97.275 275.831,97.046 276.103 C 96.817 276.375,96.206 277.148,95.689 277.820 C 95.172 278.492,94.640 279.169,94.508 279.325 C 94.375 279.480,93.844 280.155,93.327 280.825 C 92.810 281.494,92.197 282.254,91.964 282.513 C 91.732 282.773,91.541 283.043,91.541 283.114 C 91.541 283.186,91.405 283.381,91.237 283.548 C 91.070 283.715,90.261 284.715,89.439 285.770 C 88.617 286.825,87.746 287.942,87.504 288.252 C 87.262 288.562,86.804 289.154,86.487 289.568 C 86.170 289.981,85.796 290.446,85.655 290.602 C 85.514 290.757,85.195 291.180,84.946 291.541 C 84.696 291.903,84.448 292.242,84.394 292.293 C 84.232 292.448,81.494 295.911,81.027 296.552 C 80.255 297.611,78.912 297.559,107.041 297.555 L 133.232 297.551 134.256 296.285 C 134.819 295.589,135.619 294.554,136.034 293.985 C 136.448 293.416,137.244 292.384,137.802 291.692 C 138.359 290.999,139.274 289.837,139.834 289.109 C 140.394 288.381,141.007 287.619,141.197 287.416 C 141.386 287.212,141.541 286.962,141.541 286.859 C 141.541 286.757,141.649 286.605,141.781 286.522 C 141.980 286.398,143.471 284.556,144.641 282.989 C 144.795 282.782,145.140 282.359,145.408 282.049 C 145.675 281.739,146.092 281.181,146.333 280.810 C 146.574 280.439,146.920 279.987,147.102 279.805 C 147.284 279.623,147.799 278.996,148.247 278.412 C 148.695 277.828,149.334 277.024,149.667 276.626 C 150.000 276.229,150.481 275.594,150.737 275.217 C 150.992 274.839,151.319 274.411,151.463 274.265 C 151.607 274.119,152.077 273.527,152.507 272.949 C 152.937 272.371,153.396 271.786,153.525 271.649 C 153.655 271.512,154.026 271.005,154.350 270.522 C 154.674 270.038,155.037 269.558,155.156 269.455 C 155.275 269.352,155.623 268.929,155.929 268.515 C 156.235 268.102,156.576 267.679,156.687 267.575 C 156.799 267.472,157.179 267.007,157.532 266.541 C 158.293 265.537,157.947 265.981,160.766 262.398 C 162.030 260.791,163.227 259.227,163.426 258.921 C 163.625 258.615,163.885 258.280,164.004 258.177 C 164.123 258.073,164.507 257.608,164.858 257.143 C 165.208 256.678,166.787 254.670,168.368 252.681 C 169.948 250.693,171.241 248.987,171.241 248.891 C 171.241 248.794,171.310 248.687,171.395 248.653 C 171.480 248.618,172.174 247.787,172.937 246.805 C 173.700 245.822,174.962 244.209,175.743 243.218 C 176.523 242.228,177.331 241.185,177.538 240.900 C 177.744 240.616,178.040 240.220,178.195 240.021 C 179.050 238.923,179.266 238.649,179.643 238.191 C 179.871 237.914,180.482 237.138,181.001 236.466 C 182.454 234.586,182.759 234.202,183.337 233.524 C 183.632 233.178,183.826 232.895,183.769 232.895 C 183.711 232.895,183.850 232.691,184.078 232.443 C 184.641 231.829,184.777 231.660,186.895 228.958 C 187.913 227.660,189.015 226.268,189.344 225.864 C 189.674 225.461,189.975 225.049,190.014 224.948 C 190.053 224.847,190.247 224.585,190.446 224.366 C 191.060 223.687,191.269 223.428,191.831 222.650 C 192.131 222.237,192.907 221.252,193.556 220.461 C 194.206 219.671,194.737 218.952,194.738 218.863 C 194.738 218.775,194.973 218.449,195.259 218.139 C 195.731 217.628,197.004 216.018,199.642 212.594 C 201.778 209.822,201.711 209.931,201.458 209.613 C 201.328 209.450,201.095 209.154,200.940 208.955 C 200.785 208.756,200.320 208.189,199.906 207.695 C 199.492 207.202,198.880 206.424,198.544 205.967 C 198.209 205.509,197.786 204.952,197.604 204.728 C 197.423 204.503,197.129 204.130,196.952 203.899 C 196.775 203.667,196.098 202.797,195.448 201.965 C 194.798 201.134,193.932 200.013,193.523 199.475 C 193.114 198.937,192.713 198.496,192.631 198.496 C 192.548 198.496,192.479 198.391,192.477 198.261 C 192.474 198.132,192.200 197.719,191.866 197.343 C 191.532 196.967,191.133 196.471,190.977 196.241 C 190.528 195.573,189.603 194.414,188.884 193.617 C 188.715 193.429,188.503 193.151,188.414 192.998 C 188.325 192.845,188.025 192.434,187.748 192.084 C 187.470 191.734,186.571 190.584,185.749 189.529 C 184.927 188.475,184.118 187.475,183.951 187.307 C 183.783 187.140,183.647 186.945,183.647 186.874 C 183.647 186.803,183.456 186.532,183.224 186.273 C 182.991 186.013,182.378 185.253,181.861 184.584 C 181.344 183.915,180.813 183.240,180.680 183.084 C 180.423 182.782,178.973 180.912,178.195 179.880 C 177.937 179.537,177.303 178.724,176.786 178.073 C 176.269 177.422,175.713 176.704,175.551 176.477 C 175.258 176.069,175.243 176.079,174.141 177.458 M227.192 177.491 C 226.622 178.240,225.323 179.911,224.307 181.203 C 223.291 182.495,222.333 183.735,222.179 183.959 C 222.025 184.182,221.370 185.028,220.724 185.839 C 220.078 186.649,219.401 187.507,219.220 187.744 C 219.039 187.982,218.764 188.331,218.609 188.518 C 218.454 188.706,218.116 189.139,217.857 189.481 C 217.353 190.146,216.500 191.213,215.581 192.324 C 215.268 192.703,214.449 193.760,213.760 194.674 C 213.072 195.587,212.317 196.545,212.082 196.803 C 211.847 197.060,211.654 197.331,211.654 197.405 C 211.654 197.479,211.464 197.747,211.231 198.000 C 210.753 198.520,210.654 198.642,209.650 199.944 C 209.253 200.459,207.414 202.815,205.563 205.181 C 201.789 210.006,201.877 209.849,202.533 210.620 C 202.797 210.930,203.538 211.861,204.180 212.688 C 204.822 213.515,205.455 214.259,205.587 214.342 C 205.719 214.425,205.827 214.572,205.827 214.669 C 205.827 214.828,206.146 215.272,206.680 215.857 C 206.880 216.075,209.007 218.820,209.670 219.714 C 209.870 219.985,210.336 220.557,210.703 220.985 C 211.071 221.413,211.642 222.132,211.972 222.582 C 212.303 223.033,212.704 223.571,212.864 223.778 C 213.260 224.290,215.699 227.383,216.347 228.195 C 216.635 228.557,217.434 229.596,218.122 230.504 C 218.809 231.411,219.539 232.321,219.742 232.524 C 219.946 232.728,220.115 232.958,220.117 233.036 C 220.120 233.113,220.416 233.503,220.775 233.902 C 221.134 234.301,221.430 234.682,221.432 234.748 C 221.433 234.814,221.666 235.136,221.948 235.462 C 222.619 236.236,222.909 236.598,223.585 237.504 C 224.316 238.484,225.097 239.478,226.097 240.703 C 226.269 240.914,226.829 241.633,227.342 242.301 C 227.855 242.969,228.325 243.557,228.386 243.609 C 228.447 243.661,228.747 244.039,229.051 244.449 C 229.356 244.859,229.716 245.324,229.851 245.483 C 229.987 245.641,230.519 246.320,231.035 246.992 C 231.551 247.664,232.160 248.438,232.387 248.711 C 232.615 248.984,232.970 249.445,233.177 249.736 C 233.383 250.026,234.655 251.664,236.001 253.374 C 237.348 255.085,239.029 257.246,239.736 258.177 C 240.982 259.817,242.967 262.336,245.492 265.484 C 246.166 266.324,246.964 267.350,247.264 267.763 C 247.565 268.177,247.924 268.642,248.064 268.797 C 248.203 268.952,248.576 269.417,248.893 269.831 C 249.210 270.244,249.652 270.822,249.876 271.114 C 250.366 271.754,252.061 273.902,252.795 274.812 C 253.087 275.174,254.063 276.442,254.964 277.631 C 255.866 278.820,256.725 279.860,256.873 279.943 C 257.021 280.026,257.143 280.217,257.143 280.366 C 257.143 280.516,257.209 280.639,257.290 280.639 C 257.371 280.639,257.576 280.872,257.746 281.156 C 257.915 281.440,258.208 281.844,258.397 282.053 C 258.586 282.262,259.163 282.981,259.679 283.651 C 260.776 285.073,260.807 285.113,261.874 286.466 C 262.323 287.035,263.188 288.156,263.797 288.959 C 264.406 289.761,265.088 290.607,265.311 290.838 C 265.535 291.070,265.922 291.555,266.171 291.917 C 266.419 292.279,266.710 292.669,266.817 292.784 C 266.924 292.899,267.802 294.019,268.769 295.274 L 270.526 297.556 296.714 297.556 C 317.318 297.556,322.917 297.507,322.978 297.324 C 323.067 297.058,322.410 295.865,322.175 295.865 C 322.088 295.865,321.970 295.715,321.912 295.532 C 321.854 295.349,321.573 294.942,321.289 294.628 C 321.004 294.314,320.540 293.724,320.258 293.316 C 319.977 292.909,319.554 292.364,319.319 292.105 C 319.083 291.847,318.640 291.300,318.334 290.890 C 318.027 290.480,317.665 290.015,317.529 289.856 C 317.310 289.601,316.339 288.354,315.091 286.727 C 314.862 286.429,314.508 285.973,314.304 285.714 C 311.713 282.433,308.943 278.882,307.852 277.444 C 307.107 276.461,305.948 274.981,305.276 274.154 C 304.604 273.327,303.991 272.566,303.915 272.462 C 303.838 272.359,303.074 271.386,302.217 270.301 C 301.359 269.215,300.409 267.989,300.104 267.575 C 299.800 267.162,299.403 266.654,299.222 266.447 C 299.040 266.241,298.449 265.479,297.907 264.756 C 297.365 264.032,296.282 262.641,295.500 261.665 C 294.196 260.036,293.466 259.099,291.465 256.485 C 291.070 255.968,290.629 255.477,290.486 255.395 C 290.343 255.312,290.226 255.161,290.226 255.058 C 290.226 254.955,290.143 254.769,290.042 254.644 C 289.941 254.519,289.517 253.994,289.100 253.477 C 288.682 252.961,288.230 252.411,288.094 252.256 C 287.959 252.101,287.601 251.635,287.298 251.222 C 286.996 250.808,286.664 250.378,286.560 250.266 C 286.457 250.154,286.224 249.858,286.042 249.608 C 285.197 248.443,284.850 247.983,284.631 247.733 C 284.501 247.584,283.872 246.786,283.235 245.959 C 282.597 245.132,282.021 244.413,281.955 244.361 C 281.889 244.309,281.485 243.790,281.058 243.207 C 280.631 242.624,279.982 241.820,279.615 241.421 C 279.249 241.022,278.949 240.626,278.948 240.541 C 278.947 240.350,277.437 238.496,277.115 238.290 C 276.985 238.207,276.880 238.047,276.880 237.934 C 276.880 237.821,276.517 237.296,276.074 236.768 C 275.631 236.240,275.131 235.597,274.963 235.338 C 274.795 235.080,274.414 234.607,274.115 234.288 C 273.817 233.968,273.241 233.249,272.835 232.690 C 272.429 232.131,271.714 231.204,271.246 230.632 C 270.323 229.504,269.957 229.034,268.744 227.425 C 267.508 225.785,263.375 220.545,263.099 220.268 C 262.963 220.131,262.772 219.882,262.676 219.716 C 262.489 219.393,261.650 218.332,260.949 217.533 C 260.717 217.268,260.526 216.998,260.526 216.935 C 260.526 216.871,260.336 216.608,260.103 216.350 C 259.871 216.092,259.070 215.075,258.324 214.090 C 257.577 213.105,256.710 212.012,256.397 211.661 C 256.083 211.310,255.827 210.974,255.826 210.915 C 255.826 210.856,255.551 210.497,255.215 210.116 C 254.880 209.736,254.336 209.059,254.007 208.613 C 253.678 208.166,253.107 207.462,252.739 207.049 C 252.370 206.635,252.068 206.242,252.068 206.174 C 252.068 206.106,251.793 205.719,251.457 205.313 C 251.121 204.907,250.634 204.295,250.376 203.953 C 250.117 203.612,248.680 201.767,247.180 199.855 C 245.681 197.943,243.672 195.353,242.715 194.101 C 241.759 192.848,240.803 191.680,240.593 191.505 C 240.382 191.329,240.224 191.128,240.242 191.058 C 240.260 190.988,240.052 190.695,239.780 190.407 C 239.508 190.119,239.286 189.798,239.286 189.694 C 239.286 189.590,239.222 189.477,239.144 189.442 C 239.066 189.408,238.537 188.788,237.969 188.065 C 237.401 187.342,236.792 186.580,236.616 186.373 C 236.440 186.166,235.933 185.521,235.488 184.940 C 233.275 182.048,232.353 180.891,232.074 180.660 C 231.905 180.520,231.767 180.296,231.767 180.162 C 231.767 180.028,231.701 179.890,231.620 179.856 C 231.539 179.821,231.064 179.259,230.565 178.606 C 230.066 177.952,229.456 177.200,229.208 176.933 C 228.961 176.667,228.759 176.377,228.759 176.288 C 228.759 175.790,228.102 176.295,227.192 177.491 M313.203 315.839 L 310.338 318.707 310.338 320.350 L 310.338 321.992 308.716 321.992 L 307.094 321.992 304.816 324.366 C 303.563 325.671,302.509 326.813,302.475 326.903 C 302.440 326.994,304.187 327.068,306.375 327.068 L 310.338 327.068 310.338 339.457 C 310.338 353.052,310.379 353.657,311.447 355.939 C 313.352 360.010,318.832 361.727,323.543 359.731 L 324.436 359.352 324.436 356.838 C 324.436 355.455,324.415 354.324,324.389 354.326 C 324.363 354.327,323.877 354.453,323.308 354.605 C 321.117 355.193,318.982 354.814,318.088 353.677 C 317.201 352.550,317.199 352.522,317.199 339.474 L 317.199 327.162 320.713 327.111 L 324.227 327.059 324.285 324.604 C 324.316 323.253,324.307 322.113,324.264 322.070 C 324.221 322.027,322.592 321.992,320.645 321.992 L 317.105 321.992 317.105 317.481 L 317.105 312.970 316.586 312.970 C 316.167 312.970,315.515 313.523,313.203 315.839 M94.079 321.354 C 82.737 322.425,75.800 329.626,75.427 340.714 C 75.080 351.019,80.002 358.212,89.004 360.556 C 92.605 361.494,99.244 361.136,103.288 359.785 C 105.505 359.045,105.418 359.232,104.800 356.537 C 104.172 353.799,104.167 353.792,103.249 354.204 C 99.007 356.109,93.278 356.110,89.322 354.208 C 80.156 349.799,79.971 333.170,89.036 328.421 C 92.966 326.362,98.694 326.227,102.918 328.095 L 103.925 328.541 104.302 327.287 C 104.913 325.254,105.451 323.369,105.451 323.265 C 105.451 322.453,97.172 321.062,94.079 321.354 M125.094 321.353 C 114.640 322.877,108.527 330.833,108.884 342.451 C 109.337 357.206,123.031 365.670,135.976 359.196 C 150.261 352.050,149.414 327.738,134.694 322.428 C 133.861 322.128,133.881 322.134,132.237 321.705 C 131.134 321.417,126.290 321.179,125.094 321.353 M168.891 321.358 C 168.684 321.410,168.013 321.577,167.400 321.728 C 164.145 322.529,161.053 324.679,159.251 327.393 L 158.564 328.428 158.433 327.889 C 158.362 327.592,158.245 326.187,158.174 324.765 L 158.044 322.180 154.940 322.180 L 151.836 322.180 151.980 322.603 C 152.060 322.836,152.161 331.422,152.206 341.682 L 152.287 360.338 155.749 360.338 L 159.211 360.338 159.211 347.972 C 159.211 337.474,159.254 335.438,159.498 334.500 C 161.660 326.202,172.844 324.140,176.492 331.368 C 177.852 334.061,177.865 334.218,177.958 347.979 L 178.042 360.338 181.417 360.338 L 184.793 360.338 184.731 346.945 L 184.669 333.553 184.161 331.673 C 182.734 326.400,179.528 322.941,174.906 321.691 C 173.804 321.392,169.661 321.163,168.891 321.358 M207.989 321.363 C 203.950 322.007,200.574 324.088,198.343 327.311 C 197.428 328.632,197.438 328.646,197.286 325.846 C 197.218 324.605,197.117 323.273,197.061 322.885 L 196.959 322.180 193.941 322.180 L 190.922 322.180 191.042 323.731 C 191.109 324.584,191.164 333.170,191.164 342.810 L 191.165 360.338 194.635 360.338 L 198.105 360.338 198.160 347.697 L 198.214 335.056 198.722 333.790 C 201.958 325.716,212.314 324.362,215.642 331.579 C 216.822 334.137,216.801 333.863,216.871 347.697 L 216.935 360.338 220.406 360.338 L 223.877 360.338 223.856 348.261 C 223.831 333.396,223.693 331.934,222.000 328.477 C 219.471 323.316,213.800 320.436,207.989 321.363 M244.079 321.436 C 227.232 324.047,223.263 351.484,238.628 359.115 C 243.093 361.333,250.556 361.751,256.767 360.132 C 258.263 359.742,260.129 359.066,260.418 358.810 C 260.556 358.688,259.698 354.255,259.483 353.982 C 259.458 353.950,258.711 354.179,257.825 354.492 C 252.646 356.320,246.112 356.254,242.193 354.333 C 238.387 352.469,235.714 347.920,235.714 343.306 L 235.714 342.481 249.134 342.481 C 261.198 342.481,262.565 342.451,262.668 342.184 C 262.731 342.020,262.782 340.719,262.782 339.291 C 262.782 327.135,255.035 319.739,244.079 321.436 M263.189 321.793 C 263.224 321.890,266.508 326.129,270.489 331.213 C 274.469 336.297,277.780 340.553,277.847 340.670 C 277.914 340.787,277.068 342.037,275.967 343.447 C 274.867 344.857,271.640 348.987,268.797 352.626 C 265.954 356.264,263.472 359.447,263.281 359.699 L 262.933 360.158 267.127 360.107 L 271.321 360.056 273.771 356.932 C 275.119 355.214,277.524 352.147,279.116 350.118 C 280.707 348.089,282.080 346.429,282.167 346.429 C 282.254 346.429,282.770 346.998,283.314 347.694 C 283.859 348.389,285.764 350.821,287.547 353.098 C 289.331 355.374,291.303 357.892,291.931 358.694 L 293.072 360.150 297.200 360.150 C 301.924 360.150,301.620 360.361,299.949 358.252 C 298.422 356.325,292.532 348.801,289.321 344.677 C 286.979 341.669,286.452 340.884,286.584 340.602 C 286.674 340.410,287.571 339.211,288.577 337.937 C 290.854 335.051,294.574 330.296,298.108 325.752 C 299.596 323.839,300.939 322.126,301.093 321.945 C 301.359 321.634,301.155 321.617,297.163 321.617 L 292.951 321.617 291.635 323.355 C 290.912 324.312,289.474 326.160,288.440 327.463 C 287.406 328.766,286.053 330.489,285.432 331.291 C 283.035 334.391,282.268 335.338,282.154 335.338 C 282.089 335.338,281.405 334.521,280.633 333.521 C 279.861 332.522,278.383 330.626,277.350 329.309 C 276.316 327.992,274.539 325.724,273.402 324.270 L 271.335 321.625 267.231 321.621 C 264.749 321.618,263.151 321.686,263.189 321.793 M249.702 326.590 C 253.323 327.730,255.813 331.381,256.147 336.043 L 256.259 337.594 246.092 337.594 C 240.500 337.594,235.880 337.523,235.826 337.435 C 235.685 337.207,236.367 334.489,236.870 333.271 C 239.201 327.626,244.399 324.920,249.702 326.590 M129.576 326.586 C 141.712 328.908,142.483 351.544,130.562 355.545 C 122.861 358.131,115.801 351.347,115.793 341.353 C 115.784 331.457,121.731 325.085,129.576 326.586 " stroke="none" fill="#445cfc" fill-rule="evenodd"></path><path id="path1" d="M268.738 56.386 C 268.150 57.004,267.669 57.570,267.669 57.645 C 267.669 57.719,267.453 58.006,267.189 58.281 C 266.925 58.557,266.312 59.338,265.826 60.017 C 265.341 60.696,264.521 61.751,264.004 62.363 C 263.155 63.366,262.465 64.246,259.395 68.233 C 258.877 68.905,258.342 69.582,258.205 69.737 C 258.068 69.892,257.902 70.167,257.837 70.348 C 257.772 70.529,257.645 70.677,257.556 70.677 C 257.466 70.677,257.062 71.163,256.658 71.758 C 256.253 72.352,255.731 73.050,255.497 73.308 C 254.727 74.158,252.933 76.422,251.786 77.993 C 250.792 79.354,249.558 80.912,248.800 81.767 C 248.662 81.922,248.072 82.683,247.489 83.459 C 246.905 84.234,246.323 84.992,246.196 85.143 C 246.068 85.294,245.594 85.928,245.141 86.553 C 244.689 87.177,244.189 87.791,244.031 87.916 C 243.873 88.042,243.608 88.352,243.441 88.606 C 243.090 89.143,239.802 93.381,239.414 93.797 C 239.134 94.097,237.988 95.560,236.469 97.556 C 235.432 98.919,234.481 100.129,233.642 101.153 C 233.334 101.528,233.083 101.923,233.083 102.030 C 233.083 102.137,233.005 102.253,232.909 102.287 C 232.813 102.321,232.432 102.730,232.061 103.195 C 229.870 105.943,227.083 109.515,226.596 110.200 C 226.285 110.638,225.461 111.703,224.764 112.566 C 224.067 113.429,223.496 114.211,223.496 114.304 C 223.496 114.396,222.944 115.074,222.270 115.809 C 221.595 116.544,220.777 117.538,220.450 118.018 C 220.124 118.498,218.963 120.018,217.870 121.396 C 213.769 126.565,212.487 128.205,212.030 128.866 C 211.772 129.239,211.198 129.966,210.756 130.480 C 210.313 130.995,209.731 131.770,209.461 132.202 C 209.191 132.635,208.623 133.379,208.198 133.857 C 207.226 134.949,206.937 135.301,205.545 137.095 C 204.925 137.895,203.971 139.105,203.426 139.785 C 201.928 141.651,201.948 141.517,202.965 142.888 C 203.453 143.547,204.011 144.265,204.204 144.484 C 205.000 145.389,205.367 145.830,205.545 146.095 C 206.304 147.229,206.588 147.601,207.518 148.684 C 208.095 149.356,208.690 150.087,208.842 150.308 C 209.861 151.798,211.776 154.135,211.977 154.135 C 212.109 154.135,212.218 154.263,212.218 154.419 C 212.218 154.841,215.543 159.179,219.923 164.474 C 220.137 164.732,220.836 165.663,221.477 166.541 C 222.117 167.420,223.322 168.985,224.154 170.019 C 224.986 171.053,226.150 172.543,226.741 173.331 C 228.502 175.677,228.191 175.766,230.979 172.124 C 231.774 171.086,232.805 169.750,233.271 169.155 C 233.736 168.561,234.724 167.285,235.465 166.321 C 236.207 165.357,237.011 164.358,237.251 164.102 C 237.854 163.460,238.488 162.582,238.712 162.077 C 238.816 161.844,238.979 161.654,239.075 161.654 C 239.170 161.654,239.425 161.379,239.640 161.043 C 240.111 160.308,240.772 159.458,242.772 157.016 C 243.604 156.000,244.486 154.873,244.733 154.511 C 244.979 154.149,245.739 153.177,246.423 152.350 C 247.106 151.523,247.958 150.437,248.316 149.937 C 248.673 149.438,249.305 148.619,249.718 148.117 C 251.863 145.514,252.907 144.078,252.849 143.812 C 252.813 143.648,252.848 143.579,252.927 143.656 C 253.095 143.821,253.759 143.272,253.759 142.969 C 253.759 142.856,254.101 142.389,254.518 141.933 C 255.231 141.153,256.548 139.485,258.103 137.395 C 258.700 136.591,259.444 135.668,260.215 134.774 C 260.349 134.619,260.660 134.196,260.906 133.835 C 261.152 133.473,261.747 132.711,262.229 132.143 C 263.131 131.077,264.445 129.386,266.027 127.256 C 267.087 125.830,267.650 125.108,268.052 124.663 C 268.211 124.486,268.589 124.007,268.891 123.597 C 269.194 123.187,269.557 122.722,269.697 122.563 C 269.838 122.404,270.649 121.386,271.500 120.301 C 272.351 119.215,273.698 117.506,274.493 116.502 C 275.289 115.498,275.940 114.603,275.940 114.513 C 275.940 114.423,276.337 113.906,276.822 113.365 C 277.684 112.404,278.247 111.685,280.169 109.095 C 280.686 108.398,281.455 107.442,281.878 106.969 C 282.711 106.037,284.076 104.271,285.230 102.632 C 285.631 102.063,286.066 101.534,286.197 101.456 C 286.419 101.324,287.639 99.749,288.064 99.046 C 288.167 98.875,289.077 97.714,290.085 96.466 C 291.093 95.218,291.917 94.140,291.917 94.071 C 291.917 94.002,292.294 93.527,292.755 93.015 C 293.216 92.502,294.077 91.432,294.670 90.637 C 295.263 89.842,296.218 88.637,296.793 87.958 C 297.368 87.280,298.304 86.067,298.872 85.263 C 299.441 84.459,300.296 83.355,300.773 82.810 C 301.250 82.266,302.413 80.814,303.358 79.585 C 306.353 75.686,306.953 74.913,307.209 74.624 C 307.346 74.469,307.511 74.194,307.576 74.013 C 307.642 73.832,307.768 73.684,307.858 73.684 C 307.947 73.684,308.342 73.217,308.736 72.645 C 309.129 72.074,309.778 71.249,310.177 70.813 C 310.576 70.376,310.902 69.956,310.902 69.878 C 310.902 69.801,311.188 69.420,311.538 69.032 C 311.888 68.645,312.772 67.523,313.502 66.541 C 314.944 64.603,316.044 63.195,316.635 62.533 C 317.039 62.081,319.985 58.267,321.223 56.595 C 321.637 56.035,321.933 55.506,321.879 55.420 C 321.826 55.334,310.088 55.263,295.795 55.263 L 269.807 55.263 268.738 56.386 " stroke="none" fill="#445cfc" fill-rule="evenodd"></path><path id="path2" d="M91.165 55.214 C 116.284 55.343,134.542 55.344,134.463 55.216 C 134.416 55.139,122.518 55.096,108.025 55.120 C 93.531 55.145,85.945 55.188,91.165 55.214 M134.962 56.156 C 135.208 56.492,135.438 56.767,135.474 56.767 C 135.617 56.767,135.151 56.062,134.843 55.812 C 134.640 55.647,134.685 55.778,134.962 56.156 M82.323 56.532 C 82.672 56.971,82.992 57.331,83.033 57.331 C 83.166 57.331,82.360 56.273,82.018 55.998 C 81.837 55.852,81.974 56.093,82.323 56.532 M137.572 59.556 C 137.781 59.850,138.101 60.209,138.283 60.355 C 138.464 60.501,138.327 60.261,137.978 59.821 C 137.261 58.919,136.995 58.745,137.572 59.556 M85.003 59.962 C 86.592 62.045,87.635 63.346,87.717 63.346 C 87.830 63.346,85.742 60.650,84.951 59.774 C 84.388 59.151,84.391 59.160,85.003 59.962 M139.380 61.842 C 139.857 62.462,140.290 62.970,140.342 62.970 C 140.393 62.970,140.045 62.462,139.568 61.842 C 139.090 61.222,138.658 60.714,138.606 60.714 C 138.554 60.714,138.902 61.222,139.380 61.842 M141.347 64.354 C 141.886 65.040,142.367 65.602,142.415 65.602 C 142.543 65.602,140.819 63.386,140.574 63.235 C 140.460 63.165,140.808 63.668,141.347 64.354 M88.624 64.637 C 89.132 65.284,89.634 65.866,89.740 65.932 C 89.846 65.997,89.516 65.521,89.008 64.874 C 88.500 64.228,87.997 63.645,87.892 63.580 C 87.786 63.514,88.115 63.990,88.624 64.637 M90.409 66.912 C 90.628 67.219,90.903 67.529,91.020 67.602 C 91.138 67.674,90.997 67.423,90.707 67.043 C 90.079 66.220,89.842 66.115,90.409 66.912 M144.005 67.762 C 144.338 68.227,144.780 68.756,144.985 68.937 C 145.191 69.119,144.952 68.738,144.454 68.092 C 143.409 66.735,143.110 66.516,144.005 67.762 M91.729 68.609 C 92.057 69.023,92.367 69.361,92.419 69.361 C 92.470 69.361,92.245 69.023,91.917 68.609 C 91.590 68.195,91.280 67.857,91.228 67.857 C 91.176 67.857,91.402 68.195,91.729 68.609 M146.823 71.382 C 148.431 73.481,148.856 73.991,148.585 73.496 C 148.339 73.046,145.474 69.361,145.370 69.361 C 145.318 69.361,145.972 70.270,146.823 71.382 M93.342 70.677 C 93.830 71.297,94.360 71.910,94.522 72.039 C 94.683 72.169,94.323 71.661,93.721 70.912 C 93.119 70.162,92.588 69.549,92.542 69.549 C 92.495 69.549,92.855 70.056,93.342 70.677 M95.749 73.740 C 96.148 74.226,96.513 74.624,96.561 74.624 C 96.689 74.624,95.499 73.149,95.243 72.991 C 95.123 72.917,95.351 73.254,95.749 73.740 M149.244 74.430 C 149.463 74.737,149.738 75.048,149.855 75.120 C 149.972 75.193,149.831 74.942,149.542 74.562 C 148.914 73.738,148.677 73.634,149.244 74.430 M151.880 77.820 C 152.207 78.233,152.517 78.571,152.569 78.571 C 152.621 78.571,152.395 78.233,152.068 77.820 C 151.740 77.406,151.430 77.068,151.378 77.068 C 151.326 77.068,151.552 77.406,151.880 77.820 M99.812 78.947 C 100.140 79.361,100.450 79.699,100.502 79.699 C 100.553 79.699,100.328 79.361,100.000 78.947 C 99.672 78.534,99.362 78.195,99.311 78.195 C 99.259 78.195,99.485 78.534,99.812 78.947 M154.015 80.592 C 154.996 81.854,156.310 83.345,155.630 82.425 C 154.771 81.265,153.346 79.511,153.261 79.511 C 153.213 79.511,153.552 79.998,154.015 80.592 M103.017 82.989 C 103.875 84.149,105.301 85.902,105.385 85.902 C 105.497 85.902,103.981 83.950,103.196 83.083 C 102.732 82.571,102.693 82.550,103.017 82.989 M106.579 87.594 C 106.906 88.008,107.217 88.346,107.268 88.346 C 107.320 88.346,107.094 88.008,106.767 87.594 C 106.439 87.180,106.129 86.842,106.077 86.842 C 106.026 86.842,106.251 87.180,106.579 87.594 M109.105 90.851 C 109.394 91.231,109.669 91.541,109.716 91.541 C 109.846 91.541,109.032 90.442,108.792 90.293 C 108.674 90.221,108.815 90.472,109.105 90.851 M162.888 91.870 C 163.377 92.516,163.813 93.045,163.856 93.045 C 163.973 93.045,163.273 92.109,162.592 91.353 C 162.266 90.992,162.400 91.224,162.888 91.870 M110.062 91.917 C 110.308 92.367,113.173 96.053,113.277 96.053 C 113.328 96.053,112.674 95.143,111.823 94.032 C 110.215 91.932,109.791 91.423,110.062 91.917 M164.926 94.502 C 165.527 95.251,166.058 95.865,166.105 95.865 C 166.230 95.865,164.469 93.650,164.125 93.374 C 163.963 93.245,164.324 93.752,164.926 94.502 M113.902 96.945 C 114.251 97.385,114.570 97.744,114.612 97.744 C 114.745 97.744,113.939 96.687,113.597 96.412 C 113.415 96.266,113.553 96.506,113.902 96.945 M167.939 98.370 C 168.229 98.750,168.504 99.060,168.550 99.060 C 168.681 99.060,167.867 97.961,167.626 97.812 C 167.509 97.739,167.650 97.991,167.939 98.370 M169.639 100.539 C 170.147 101.186,170.649 101.769,170.755 101.834 C 170.861 101.899,170.531 101.424,170.023 100.777 C 169.515 100.130,169.013 99.547,168.907 99.482 C 168.801 99.416,169.130 99.892,169.639 100.539 M117.005 100.932 C 117.479 101.547,117.959 102.109,118.073 102.179 C 118.186 102.249,117.838 101.745,117.299 101.059 C 116.760 100.373,116.280 99.812,116.231 99.812 C 116.183 99.812,116.531 100.316,117.005 100.932 M171.429 102.820 C 171.756 103.233,172.066 103.571,172.118 103.571 C 172.170 103.571,171.944 103.233,171.617 102.820 C 171.289 102.406,170.979 102.068,170.927 102.068 C 170.875 102.068,171.101 102.406,171.429 102.820 M119.079 103.571 C 119.556 104.192,119.989 104.699,120.041 104.699 C 120.092 104.699,119.744 104.192,119.267 103.571 C 118.790 102.951,118.357 102.444,118.305 102.444 C 118.253 102.444,118.602 102.951,119.079 103.571 M173.022 104.862 C 173.530 105.509,174.033 106.092,174.138 106.157 C 174.244 106.223,173.915 105.747,173.406 105.100 C 172.898 104.453,172.396 103.870,172.290 103.805 C 172.185 103.740,172.514 104.216,173.022 104.862 M121.984 107.284 C 122.334 107.723,122.653 108.083,122.695 108.083 C 122.827 108.083,122.022 107.025,121.680 106.750 C 121.498 106.604,121.635 106.844,121.984 107.284 M124.706 110.776 C 124.996 111.156,125.271 111.466,125.317 111.466 C 125.448 111.466,124.634 110.367,124.393 110.218 C 124.276 110.145,124.417 110.397,124.706 110.776 M178.759 112.218 C 179.087 112.632,179.397 112.970,179.449 112.970 C 179.501 112.970,179.275 112.632,178.947 112.218 C 178.620 111.805,178.310 111.466,178.258 111.466 C 178.206 111.466,178.432 111.805,178.759 112.218 M126.302 112.829 C 126.748 113.423,127.150 113.910,127.196 113.910 C 127.324 113.910,126.088 112.230,125.771 111.975 C 125.617 111.850,125.856 112.234,126.302 112.829 M180.823 114.844 C 181.042 115.151,181.317 115.461,181.434 115.534 C 181.551 115.607,181.410 115.355,181.121 114.976 C 180.492 114.152,180.256 114.047,180.823 114.844 M181.933 116.323 C 182.142 116.617,182.462 116.976,182.644 117.122 C 182.825 117.268,182.688 117.028,182.339 116.588 C 181.622 115.686,181.356 115.512,181.933 116.323 M130.263 117.857 C 130.591 118.271,130.901 118.609,130.953 118.609 C 131.004 118.609,130.779 118.271,130.451 117.857 C 130.124 117.444,129.813 117.105,129.762 117.105 C 129.710 117.105,129.936 117.444,130.263 117.857 M183.502 118.233 C 183.858 118.698,184.559 119.629,185.058 120.301 C 186.033 121.613,186.437 122.087,186.179 121.617 C 185.922 121.149,184.089 118.748,183.451 118.045 C 182.883 117.419,182.885 117.428,183.502 118.233 M131.579 119.549 C 131.906 119.962,132.217 120.301,132.268 120.301 C 132.320 120.301,132.094 119.962,131.767 119.549 C 131.439 119.135,131.129 118.797,131.077 118.797 C 131.026 118.797,131.251 119.135,131.579 119.549 M136.082 125.329 C 136.431 125.768,136.751 126.128,136.792 126.128 C 136.925 126.128,136.120 125.070,135.778 124.795 C 135.596 124.649,135.733 124.890,136.082 125.329 M189.474 125.940 C 189.801 126.353,190.111 126.692,190.163 126.692 C 190.215 126.692,189.989 126.353,189.662 125.940 C 189.334 125.526,189.024 125.188,188.972 125.188 C 188.920 125.188,189.146 125.526,189.474 125.940 M138.136 127.977 C 138.345 128.271,138.665 128.630,138.847 128.776 C 139.028 128.922,138.891 128.682,138.542 128.242 C 137.825 127.340,137.559 127.166,138.136 127.977 M139.451 129.605 C 139.666 129.915,140.105 130.465,140.427 130.827 C 140.922 131.382,140.952 131.397,140.624 130.921 C 140.410 130.611,139.971 130.061,139.648 129.699 C 139.154 129.144,139.123 129.130,139.451 129.605 M192.836 130.233 C 193.045 130.526,193.364 130.886,193.546 131.032 C 193.727 131.178,193.590 130.938,193.241 130.498 C 192.524 129.596,192.258 129.422,192.836 130.233 M194.255 132.017 C 194.545 132.396,194.819 132.707,194.866 132.707 C 194.997 132.707,194.183 131.607,193.942 131.458 C 193.825 131.386,193.966 131.637,194.255 132.017 M141.533 132.284 C 141.882 132.723,142.202 133.083,142.244 133.083 C 142.376 133.083,141.571 132.025,141.229 131.750 C 141.047 131.604,141.184 131.844,141.533 132.284 M144.625 136.231 C 146.108 138.154,147.196 139.459,146.772 138.809 C 146.324 138.122,143.395 134.398,143.302 134.398 C 143.252 134.398,143.847 135.223,144.625 136.231 M199.624 138.910 C 199.952 139.323,200.262 139.662,200.314 139.662 C 200.365 139.662,200.140 139.323,199.812 138.910 C 199.485 138.496,199.174 138.158,199.123 138.158 C 199.071 138.158,199.297 138.496,199.624 138.910 M201.504 141.514 C 201.504 141.602,200.814 142.554,199.970 143.628 C 198.220 145.859,197.942 146.237,198.257 145.959 C 199.101 145.212,201.900 141.353,201.598 141.353 C 201.546 141.353,201.504 141.426,201.504 141.514 M151.422 144.878 C 151.911 145.524,152.347 146.053,152.390 146.053 C 152.507 146.053,151.807 145.116,151.126 144.361 C 150.800 143.999,150.933 144.232,151.422 144.878 M196.501 148.065 C 196.103 148.551,195.875 148.888,195.995 148.814 C 196.251 148.656,197.441 147.180,197.313 147.180 C 197.265 147.180,196.900 147.578,196.501 148.065 M155.075 149.624 C 155.403 150.038,155.713 150.376,155.765 150.376 C 155.816 150.376,155.591 150.038,155.263 149.624 C 154.936 149.211,154.625 148.872,154.574 148.872 C 154.522 148.872,154.748 149.211,155.075 149.624 M194.443 150.690 C 194.154 151.070,194.013 151.321,194.130 151.248 C 194.371 151.100,195.184 150.000,195.054 150.000 C 195.007 150.000,194.733 150.311,194.443 150.690 M156.364 151.269 C 156.571 151.553,157.006 152.082,157.332 152.444 C 157.658 152.805,157.525 152.573,157.036 151.927 C 156.169 150.780,155.620 150.242,156.364 151.269 M190.602 155.639 C 190.274 156.053,190.048 156.391,190.100 156.391 C 190.152 156.391,190.462 156.053,190.789 155.639 C 191.117 155.226,191.343 154.887,191.291 154.887 C 191.239 154.887,190.929 155.226,190.602 155.639 M160.933 157.055 C 161.385 157.744,162.825 159.586,162.910 159.586 C 162.956 159.586,162.732 159.227,162.412 158.788 C 161.754 157.882,160.548 156.470,160.933 157.055 M189.082 157.560 C 188.024 158.866,187.704 159.354,188.431 158.553 C 189.186 157.720,189.917 156.767,189.800 156.767 C 189.758 156.767,189.436 157.124,189.082 157.560 M166.819 164.637 C 167.327 165.284,167.830 165.866,167.935 165.932 C 168.041 165.997,167.712 165.521,167.203 164.874 C 166.695 164.228,166.193 163.645,166.087 163.580 C 165.982 163.514,166.311 163.990,166.819 164.637 M183.835 164.286 C 183.507 164.699,183.281 165.038,183.333 165.038 C 183.385 165.038,183.695 164.699,184.023 164.286 C 184.350 163.872,184.576 163.534,184.524 163.534 C 184.472 163.534,184.162 163.872,183.835 164.286 M169.470 168.045 C 169.957 168.665,170.488 169.279,170.650 169.408 C 170.811 169.537,170.451 169.030,169.849 168.280 C 169.247 167.531,168.716 166.917,168.669 166.917 C 168.622 166.917,168.983 167.425,169.470 168.045 M179.479 169.878 C 178.626 170.888,177.752 172.049,177.924 171.947 C 178.150 171.811,179.953 169.549,179.835 169.549 C 179.792 169.549,179.632 169.697,179.479 169.878 M177.322 172.603 C 176.696 173.309,175.714 174.624,175.813 174.624 C 175.864 174.624,176.338 174.074,176.866 173.402 C 177.814 172.195,178.050 171.782,177.322 172.603 M173.870 173.682 C 174.197 174.094,174.562 174.492,174.682 174.566 C 174.802 174.640,174.574 174.303,174.175 173.816 C 173.777 173.330,173.412 172.932,173.364 172.932 C 173.316 172.932,173.544 173.270,173.870 173.682 M313.156 315.742 L 310.244 318.703 313.205 315.792 C 315.955 313.087,316.250 312.782,316.116 312.782 C 316.089 312.782,314.757 314.114,313.156 315.742 M310.188 320.246 L 310.150 321.788 308.788 321.853 L 307.425 321.918 308.793 321.955 C 310.403 321.999,310.381 322.026,310.291 320.095 L 310.225 318.703 310.188 320.246 M95.257 321.189 C 95.595 321.231,96.102 321.230,96.385 321.187 C 96.667 321.144,96.391 321.110,95.771 321.111 C 95.150 321.112,94.919 321.147,95.257 321.189 M125.989 321.188 C 126.275 321.231,126.698 321.230,126.929 321.185 C 127.160 321.140,126.927 321.105,126.410 321.106 C 125.893 321.108,125.704 321.144,125.989 321.188 M128.712 321.185 C 128.945 321.230,129.326 321.230,129.558 321.185 C 129.791 321.140,129.601 321.104,129.135 321.104 C 128.670 321.104,128.480 321.140,128.712 321.185 M169.880 321.186 C 170.114 321.231,170.452 321.229,170.632 321.182 C 170.812 321.135,170.620 321.098,170.207 321.100 C 169.793 321.102,169.646 321.141,169.880 321.186 M171.948 321.186 C 172.181 321.231,172.520 321.229,172.700 321.182 C 172.879 321.135,172.688 321.098,172.274 321.100 C 171.861 321.102,171.714 321.141,171.948 321.186 M208.788 321.185 C 209.020 321.230,209.401 321.230,209.633 321.185 C 209.866 321.140,209.676 321.104,209.211 321.104 C 208.745 321.104,208.555 321.140,208.788 321.185 M210.855 321.185 C 211.088 321.230,211.469 321.230,211.701 321.185 C 211.934 321.140,211.743 321.104,211.278 321.104 C 210.813 321.104,210.623 321.140,210.855 321.185 M245.442 321.185 C 245.674 321.230,246.055 321.230,246.288 321.185 C 246.520 321.140,246.330 321.104,245.865 321.104 C 245.399 321.104,245.209 321.140,245.442 321.185 M98.263 321.374 C 98.497 321.419,98.836 321.417,99.015 321.370 C 99.195 321.323,99.004 321.286,98.590 321.288 C 98.177 321.290,98.030 321.329,98.263 321.374 M267.185 321.569 C 270.085 321.608,271.393 321.692,271.602 321.855 C 271.864 322.059,271.868 322.048,271.641 321.758 C 271.407 321.459,270.992 321.433,267.223 321.472 L 263.064 321.515 267.185 321.569 M292.792 321.570 C 292.744 321.647,294.649 321.686,297.026 321.657 C 300.331 321.616,301.314 321.656,301.208 321.827 C 301.120 321.969,301.150 322.001,301.290 321.915 C 301.411 321.840,301.461 321.700,301.402 321.604 C 301.273 321.395,292.920 321.362,292.792 321.570 M318.938 321.945 C 319.894 321.979,321.459 321.979,322.415 321.945 C 323.372 321.910,322.589 321.883,320.677 321.883 C 318.764 321.883,317.982 321.910,318.938 321.945 M190.841 323.308 C 190.841 323.773,190.877 323.964,190.922 323.731 C 190.967 323.499,190.967 323.118,190.922 322.885 C 190.877 322.653,190.841 322.843,190.841 323.308 M197.234 323.966 C 197.236 324.483,197.272 324.672,197.315 324.387 C 197.359 324.101,197.357 323.678,197.313 323.447 C 197.268 323.215,197.233 323.449,197.234 323.966 M151.940 325.376 C 151.940 326.048,151.974 326.323,152.016 325.987 C 152.057 325.651,152.057 325.101,152.016 324.765 C 151.974 324.429,151.940 324.704,151.940 325.376 M158.324 325.470 C 158.326 325.987,158.362 326.176,158.406 325.890 C 158.449 325.605,158.448 325.182,158.403 324.950 C 158.358 324.719,158.323 324.953,158.324 325.470 M234.768 326.081 L 233.741 327.162 234.821 326.134 C 235.826 325.180,235.988 325.000,235.849 325.000 C 235.819 325.000,235.333 325.486,234.768 326.081 M303.008 326.034 C 302.551 326.499,302.220 326.880,302.271 326.880 C 302.323 326.880,302.739 326.499,303.195 326.034 C 303.652 325.569,303.983 325.188,303.932 325.188 C 303.880 325.188,303.464 325.569,303.008 326.034 M197.416 326.786 C 197.418 327.199,197.456 327.346,197.501 327.112 C 197.546 326.879,197.545 326.540,197.498 326.361 C 197.451 326.181,197.414 326.372,197.416 326.786 M191.022 343.269 C 190.997 352.645,191.041 360.355,191.118 360.403 C 191.246 360.482,191.245 348.324,191.116 332.331 C 191.088 328.971,191.046 333.893,191.022 343.269 M310.239 339.662 C 310.239 346.537,310.263 349.349,310.291 345.912 C 310.320 342.474,310.320 336.849,310.291 333.412 C 310.263 329.974,310.239 332.787,310.239 339.662 M184.822 335.620 C 184.824 336.034,184.862 336.181,184.907 335.947 C 184.952 335.713,184.951 335.375,184.904 335.195 C 184.857 335.015,184.820 335.207,184.822 335.620 M159.210 348.158 C 159.159 354.950,159.181 360.444,159.259 360.365 C 159.337 360.287,159.379 354.730,159.353 348.016 L 159.304 335.808 159.210 348.158 M177.675 336.654 C 177.675 337.016,177.714 337.164,177.761 336.983 C 177.808 336.802,177.808 336.506,177.761 336.325 C 177.714 336.144,177.675 336.292,177.675 336.654 M223.872 348.346 C 223.820 355.035,223.842 360.444,223.921 360.365 C 223.999 360.287,224.041 354.814,224.015 348.203 L 223.966 336.184 223.872 348.346 M216.818 348.590 C 216.818 355.103,216.841 357.741,216.870 354.451 C 216.899 351.161,216.899 345.832,216.870 342.609 C 216.841 339.385,216.818 342.077,216.818 348.590 M82.400 341.165 C 82.400 342.251,82.431 342.695,82.469 342.152 C 82.507 341.609,82.507 340.721,82.469 340.179 C 82.431 339.636,82.400 340.080,82.400 341.165 M115.857 341.165 C 115.857 342.148,115.889 342.549,115.928 342.058 C 115.966 341.567,115.966 340.764,115.928 340.273 C 115.889 339.781,115.857 340.183,115.857 341.165 M138.974 341.259 C 138.975 342.086,139.008 342.401,139.048 341.959 C 139.087 341.517,139.087 340.841,139.046 340.456 C 139.006 340.071,138.974 340.432,138.974 341.259 M146.294 340.883 C 146.296 341.400,146.332 341.590,146.375 341.304 C 146.419 341.018,146.418 340.595,146.373 340.364 C 146.328 340.133,146.293 340.367,146.294 340.883 M262.829 341.259 C 262.831 341.673,262.870 341.820,262.915 341.586 C 262.960 341.352,262.958 341.014,262.911 340.834 C 262.864 340.655,262.827 340.846,262.829 341.259 M235.785 342.757 C 235.726 342.909,235.722 343.141,235.776 343.274 C 235.829 343.407,235.879 343.325,235.887 343.093 L 235.902 342.672 249.295 342.622 L 262.688 342.573 249.289 342.527 C 237.658 342.487,235.877 342.518,235.785 342.757 M228.999 343.609 C 228.999 344.074,229.035 344.265,229.080 344.032 C 229.125 343.799,229.125 343.419,229.080 343.186 C 229.035 342.953,228.999 343.144,228.999 343.609 M86.090 351.751 C 86.090 351.783,86.365 352.058,86.701 352.361 L 87.312 352.914 86.760 352.303 C 86.245 351.733,86.090 351.605,86.090 351.751 M134.669 352.867 L 134.117 353.477 134.727 352.925 C 135.063 352.622,135.338 352.347,135.338 352.314 C 135.338 352.169,135.183 352.297,134.669 352.867 M320.724 354.834 C 321.008 354.877,321.473 354.877,321.758 354.834 C 322.042 354.791,321.809 354.756,321.241 354.756 C 320.672 354.756,320.439 354.791,320.724 354.834 M94.790 355.590 C 95.284 355.628,96.045 355.628,96.481 355.588 C 96.917 355.549,96.513 355.517,95.583 355.518 C 94.652 355.518,94.295 355.551,94.790 355.590 M248.261 355.777 C 248.701 355.816,249.420 355.816,249.859 355.777 C 250.298 355.737,249.939 355.705,249.060 355.705 C 248.181 355.705,247.822 355.737,248.261 355.777 M126.650 355.965 C 127.092 356.005,127.769 356.004,128.153 355.964 C 128.538 355.923,128.177 355.891,127.350 355.892 C 126.523 355.892,126.208 355.925,126.650 355.965 M318.755 360.664 C 319.197 360.704,319.874 360.703,320.259 360.663 C 320.644 360.623,320.282 360.590,319.455 360.591 C 318.628 360.591,318.313 360.624,318.755 360.664 M250.611 361.220 C 250.792 361.267,251.088 361.267,251.269 361.220 C 251.450 361.173,251.302 361.134,250.940 361.134 C 250.578 361.134,250.430 361.173,250.611 361.220 M126.462 361.416 C 126.904 361.456,127.581 361.455,127.965 361.415 C 128.350 361.374,127.989 361.342,127.162 361.343 C 126.335 361.343,126.020 361.376,126.462 361.416 " stroke="none" fill="#bec8fb" fill-rule="evenodd"></path><path id="path3" d="M317.186 317.481 C 317.186 319.911,317.213 320.905,317.246 319.690 C 317.278 318.475,317.278 316.487,317.246 315.273 C 317.213 314.058,317.186 315.052,317.186 317.481 M127.491 321.182 C 127.672 321.229,127.968 321.229,128.148 321.182 C 128.329 321.135,128.181 321.096,127.820 321.096 C 127.458 321.096,127.310 321.135,127.491 321.182 M191.021 325.752 C 191.021 326.114,191.060 326.262,191.107 326.081 C 191.154 325.900,191.154 325.604,191.107 325.423 C 191.060 325.242,191.021 325.390,191.021 325.752 M246.009 326.264 C 246.347 326.306,246.854 326.305,247.137 326.262 C 247.419 326.219,247.143 326.185,246.523 326.186 C 245.902 326.187,245.671 326.222,246.009 326.264 M305.113 327.207 C 306.012 327.242,307.535 327.242,308.496 327.208 C 309.458 327.174,308.722 327.146,306.861 327.145 C 305.000 327.145,304.213 327.173,305.113 327.207 M318.750 327.208 C 319.603 327.242,320.999 327.242,321.852 327.208 C 322.704 327.173,322.007 327.144,320.301 327.144 C 318.595 327.144,317.897 327.173,318.750 327.208 M317.194 339.098 C 317.194 345.559,317.217 348.203,317.246 344.972 C 317.275 341.741,317.275 336.454,317.246 333.224 C 317.217 329.993,317.194 332.636,317.194 339.098 M152.160 344.815 C 152.161 358.509,152.196 360.410,152.444 360.478 C 152.651 360.535,152.664 360.511,152.492 360.389 C 152.309 360.260,152.247 356.825,152.208 344.726 L 152.158 329.229 152.160 344.815 M184.863 348.120 C 184.863 354.685,184.887 357.371,184.915 354.088 C 184.944 350.806,184.944 345.435,184.915 342.152 C 184.887 338.870,184.863 341.555,184.863 348.120 M198.166 348.528 C 198.130 357.741,198.069 360.328,197.885 360.402 C 197.701 360.476,197.703 360.500,197.891 360.511 C 198.306 360.537,198.313 360.320,198.262 348.402 L 198.211 336.748 198.166 348.528 M240.823 337.547 C 243.581 337.576,248.149 337.576,250.974 337.547 C 253.798 337.518,251.541 337.494,245.959 337.494 C 240.376 337.494,238.065 337.518,240.823 337.547 M108.690 340.038 C 108.690 340.399,108.729 340.547,108.776 340.367 C 108.823 340.186,108.823 339.890,108.776 339.709 C 108.729 339.528,108.690 339.676,108.690 340.038 M229.009 341.635 C 229.010 342.359,229.044 342.632,229.085 342.242 C 229.125 341.852,229.125 341.260,229.083 340.926 C 229.042 340.593,229.008 340.912,229.009 341.635 M324.509 356.861 C 324.509 358.205,324.539 358.730,324.576 358.028 C 324.612 357.326,324.612 356.226,324.575 355.584 C 324.538 354.942,324.509 355.517,324.509 356.861 M266.034 360.291 C 267.048 360.324,268.655 360.324,269.606 360.290 C 270.557 360.256,269.727 360.229,267.763 360.229 C 265.799 360.229,265.021 360.257,266.034 360.291 M295.630 360.290 C 296.586 360.325,298.151 360.325,299.107 360.290 C 300.063 360.256,299.281 360.228,297.368 360.228 C 295.456 360.228,294.673 360.256,295.630 360.290 M154.558 360.478 C 155.256 360.514,156.398 360.514,157.096 360.478 C 157.794 360.442,157.223 360.412,155.827 360.412 C 154.431 360.412,153.860 360.442,154.558 360.478 M179.746 360.478 C 180.444 360.514,181.586 360.514,182.284 360.478 C 182.982 360.442,182.411 360.412,181.015 360.412 C 179.619 360.412,179.048 360.442,179.746 360.478 M193.280 360.478 C 193.978 360.514,195.120 360.514,195.818 360.478 C 196.516 360.442,195.945 360.412,194.549 360.412 C 193.153 360.412,192.582 360.442,193.280 360.478 M219.220 360.478 C 219.918 360.514,221.060 360.514,221.758 360.478 C 222.455 360.442,221.884 360.412,220.489 360.412 C 219.093 360.412,218.522 360.442,219.220 360.478 M246.100 361.220 C 246.281 361.267,246.577 361.267,246.758 361.220 C 246.938 361.173,246.790 361.134,246.429 361.134 C 246.067 361.134,245.919 361.173,246.100 361.220 M249.483 361.220 C 249.664 361.267,249.960 361.267,250.141 361.220 C 250.322 361.173,250.174 361.134,249.812 361.134 C 249.450 361.134,249.302 361.173,249.483 361.220 " stroke="none" fill="#ccd2fc" fill-rule="evenodd"></path><path id="path4" d="M153.440 322.133 C 154.349 322.167,155.787 322.167,156.635 322.132 C 157.483 322.097,156.739 322.069,154.981 322.069 C 153.224 322.070,152.530 322.098,153.440 322.133 M192.434 322.132 C 193.287 322.167,194.683 322.167,195.536 322.132 C 196.389 322.097,195.691 322.069,193.985 322.069 C 192.279 322.069,191.581 322.097,192.434 322.132 M324.321 324.718 C 324.321 326.062,324.351 326.587,324.388 325.885 C 324.424 325.183,324.424 324.083,324.387 323.441 C 324.350 322.800,324.321 323.374,324.321 324.718 M127.024 326.452 C 127.362 326.494,127.869 326.493,128.152 326.450 C 128.434 326.407,128.158 326.373,127.538 326.374 C 126.917 326.375,126.686 326.410,127.024 326.452 M152.124 327.444 C 152.124 328.012,152.159 328.245,152.202 327.961 C 152.245 327.676,152.245 327.211,152.202 326.927 C 152.159 326.642,152.124 326.875,152.124 327.444 M95.538 326.827 C 95.824 326.870,96.247 326.869,96.478 326.824 C 96.709 326.779,96.476 326.744,95.959 326.745 C 95.442 326.747,95.253 326.783,95.538 326.827 M239.556 328.994 L 239.004 329.605 239.615 329.053 C 240.184 328.539,240.312 328.383,240.167 328.383 C 240.134 328.383,239.859 328.658,239.556 328.994 M177.908 349.248 C 177.908 355.399,177.931 357.916,177.960 354.840 C 177.989 351.765,177.989 346.732,177.960 343.656 C 177.931 340.580,177.908 343.097,177.908 349.248 M262.838 339.286 C 262.838 339.854,262.874 340.087,262.917 339.803 C 262.960 339.518,262.960 339.053,262.917 338.769 C 262.874 338.484,262.838 338.717,262.838 339.286 M75.246 341.635 C 75.247 342.256,75.282 342.487,75.324 342.149 C 75.366 341.811,75.365 341.304,75.322 341.021 C 75.279 340.739,75.245 341.015,75.246 341.635 M108.703 341.541 C 108.703 342.110,108.738 342.343,108.781 342.058 C 108.824 341.774,108.824 341.309,108.781 341.024 C 108.738 340.740,108.703 340.973,108.703 341.541 M93.750 361.226 C 94.086 361.268,94.636 361.268,94.972 361.226 C 95.308 361.185,95.033 361.150,94.361 361.150 C 93.689 361.150,93.414 361.185,93.750 361.226 M247.509 361.226 C 247.845 361.268,248.395 361.268,248.731 361.226 C 249.067 361.185,248.792 361.150,248.120 361.150 C 247.448 361.150,247.173 361.185,247.509 361.226 " stroke="none" fill="#d8e2fc" fill-rule="evenodd"></path></g></svg>